<svg width="111" height="32" viewBox="0 0 111 32" fill="none" xmlns="http://www.w3.org/2000/svg">
<path d="M0.402531 2.008C0.738531 2.024 1.17853 2.04 1.72253 2.056C2.26653 2.072 2.80253 2.08 3.33053 2.08C4.08253 2.08 4.80253 2.072 5.49053 2.056C6.17853 2.04 6.66653 2.032 6.95453 2.032C8.89053 2.032 10.3385 2.472 11.2985 3.352C12.2585 4.232 12.7385 5.368 12.7385 6.76C12.7385 7.336 12.6425 7.944 12.4505 8.584C12.2585 9.208 11.9225 9.792 11.4425 10.336C10.9785 10.864 10.3385 11.296 9.52253 11.632C8.70653 11.968 7.67453 12.136 6.42653 12.136H4.12253V11.656H6.18653C7.32253 11.656 8.18653 11.44 8.77853 11.008C9.38653 10.576 9.79453 10.008 10.0025 9.304C10.2265 8.6 10.3385 7.84 10.3385 7.024C10.3385 5.504 10.0345 4.368 9.42653 3.616C8.83453 2.864 7.81053 2.488 6.35453 2.488C5.61853 2.488 5.13853 2.624 4.91453 2.896C4.69053 3.168 4.57853 3.72 4.57853 4.552V16.456C4.57853 17.032 4.63453 17.464 4.74653 17.752C4.87453 18.04 5.11453 18.232 5.46653 18.328C5.81853 18.424 6.33053 18.488 7.00253 18.52V19C6.58653 18.968 6.05853 18.952 5.41853 18.952C4.77853 18.936 4.13053 18.928 3.47453 18.928C2.85053 18.928 2.26653 18.936 1.72253 18.952C1.17853 18.952 0.738531 18.968 0.402531 19V18.52C0.946531 18.488 1.35453 18.424 1.62653 18.328C1.91453 18.232 2.10653 18.04 2.20253 17.752C2.29853 17.464 2.34653 17.032 2.34653 16.456V4.552C2.34653 3.96 2.29853 3.528 2.20253 3.256C2.10653 2.968 1.91453 2.776 1.62653 2.68C1.35453 2.568 0.946531 2.504 0.402531 2.488V2.008ZM21.5936 6.304C22.0256 6.304 22.4016 6.392 22.7216 6.568C23.0576 6.744 23.3136 6.976 23.4896 7.264C23.6816 7.536 23.7776 7.848 23.7776 8.2C23.7776 8.6 23.6496 8.952 23.3936 9.256C23.1536 9.56 22.8256 9.712 22.4096 9.712C22.0736 9.712 21.7776 9.608 21.5216 9.4C21.2656 9.176 21.1376 8.864 21.1376 8.464C21.1376 8.16 21.2176 7.904 21.3776 7.696C21.5536 7.472 21.7456 7.296 21.9536 7.168C21.8416 7.008 21.6736 6.928 21.4496 6.928C20.9536 6.928 20.4976 7.08 20.0816 7.384C19.6656 7.672 19.3136 8.048 19.0256 8.512C18.7376 8.976 18.5136 9.472 18.3536 10C18.1936 10.512 18.1136 10.992 18.1136 11.44V16.528C18.1136 17.312 18.3376 17.84 18.7856 18.112C19.2496 18.368 19.8736 18.496 20.6576 18.496V19C20.2896 18.984 19.7696 18.968 19.0976 18.952C18.4256 18.92 17.7136 18.904 16.9616 18.904C16.4176 18.904 15.8736 18.92 15.3296 18.952C14.8016 18.968 14.4016 18.984 14.1296 19V18.496C14.7856 18.496 15.2496 18.376 15.5216 18.136C15.8096 17.896 15.9536 17.44 15.9536 16.768V9.256C15.9536 8.536 15.8256 8.008 15.5696 7.672C15.3136 7.32 14.8336 7.144 14.1296 7.144V6.64C14.6416 6.688 15.1376 6.712 15.6176 6.712C16.0816 6.712 16.5216 6.688 16.9376 6.64C17.3696 6.576 17.7616 6.488 18.1136 6.376V9.376C18.2896 8.912 18.5376 8.448 18.8576 7.984C19.1936 7.504 19.5936 7.104 20.0576 6.784C20.5216 6.464 21.0336 6.304 21.5936 6.304ZM27.5531 0.639999C27.9691 0.639999 28.3291 0.791999 28.6331 1.096C28.9371 1.4 29.0891 1.76 29.0891 2.176C29.0891 2.592 28.9371 2.952 28.6331 3.256C28.3291 3.56 27.9691 3.712 27.5531 3.712C27.1371 3.712 26.7771 3.56 26.4731 3.256C26.1691 2.952 26.0171 2.592 26.0171 2.176C26.0171 1.76 26.1691 1.4 26.4731 1.096C26.7771 0.791999 27.1371 0.639999 27.5531 0.639999ZM28.8011 6.376V16.768C28.8011 17.44 28.9371 17.896 29.2091 18.136C29.4971 18.376 29.9691 18.496 30.6251 18.496V19C30.3531 18.984 29.9371 18.968 29.3771 18.952C28.8331 18.92 28.2811 18.904 27.7211 18.904C27.1771 18.904 26.6251 18.92 26.0651 18.952C25.5051 18.968 25.0891 18.984 24.8171 19V18.496C25.4731 18.496 25.9371 18.376 26.2091 18.136C26.4971 17.896 26.6411 17.44 26.6411 16.768V9.256C26.6411 8.536 26.5131 8.008 26.2571 7.672C26.0011 7.32 25.5211 7.144 24.8171 7.144V6.64C25.3291 6.688 25.8251 6.712 26.3051 6.712C26.7691 6.712 27.2091 6.688 27.6251 6.64C28.0571 6.576 28.4491 6.488 28.8011 6.376ZM39.7683 6.304C40.3283 6.304 40.8163 6.384 41.2323 6.544C41.6483 6.704 41.9923 6.928 42.2643 7.216C42.5683 7.536 42.7763 7.952 42.8883 8.464C43.0003 8.976 43.0563 9.608 43.0563 10.36V16.768C43.0563 17.44 43.1923 17.896 43.4643 18.136C43.7523 18.376 44.2243 18.496 44.8803 18.496V19C44.6083 18.984 44.1923 18.968 43.6323 18.952C43.0723 18.92 42.5283 18.904 42.0003 18.904C41.4723 18.904 40.9523 18.92 40.4403 18.952C39.9443 18.968 39.5683 18.984 39.3123 19V18.496C39.8883 18.496 40.2963 18.376 40.5363 18.136C40.7763 17.896 40.8963 17.44 40.8963 16.768V9.832C40.8963 9.336 40.8643 8.88 40.8003 8.464C40.7363 8.048 40.5763 7.712 40.3203 7.456C40.0643 7.2 39.6483 7.072 39.0723 7.072C38.4483 7.072 37.8883 7.264 37.3923 7.648C36.9123 8.032 36.5283 8.56 36.2403 9.232C35.9683 9.888 35.8323 10.624 35.8323 11.44V16.768C35.8323 17.44 35.9523 17.896 36.1923 18.136C36.4323 18.376 36.8403 18.496 37.4163 18.496V19C37.1603 18.984 36.7763 18.968 36.2643 18.952C35.7683 18.92 35.2563 18.904 34.7283 18.904C34.2003 18.904 33.6563 18.92 33.0963 18.952C32.5363 18.968 32.1203 18.984 31.8483 19V18.496C32.5043 18.496 32.9683 18.376 33.2403 18.136C33.5283 17.896 33.6723 17.44 33.6723 16.768V9.256C33.6723 8.536 33.5443 8.008 33.2883 7.672C33.0323 7.32 32.5523 7.144 31.8483 7.144V6.64C32.3603 6.688 32.8563 6.712 33.3363 6.712C33.8003 6.712 34.2403 6.688 34.6563 6.64C35.0883 6.576 35.4803 6.488 35.8323 6.376V9.208C36.2483 8.168 36.8163 7.424 37.5363 6.976C38.2563 6.528 39.0003 6.304 39.7683 6.304ZM46.9923 6.304C47.5523 6.304 48.0403 6.384 48.4563 6.544C48.8723 6.704 49.2163 6.928 49.4883 7.216C49.7923 7.536 50.0003 7.952 50.1123 8.464C50.2243 8.976 50.2803 9.608 50.2803 10.36V16.768C50.2803 17.44 50.4163 17.896 50.6883 18.136C50.9763 18.376 51.4483 18.496 52.1043 18.496V19C51.8323 18.984 51.4163 18.968 50.8563 18.952C50.2963 18.92 49.7523 18.904 49.2243 18.904C48.6963 18.904 48.1763 18.92 47.6643 18.952C47.1683 18.968 46.7923 18.984 46.5363 19V18.496C47.1123 18.496 47.5203 18.376 47.7603 18.136C48.0003 17.896 48.1203 17.44 48.1203 16.768V9.832C48.1203 9.336 48.0883 8.88 48.0243 8.464C47.9603 8.048 47.8003 7.712 47.5443 7.456C47.2883 7.2 46.8723 7.072 46.2963 7.072C45.6723 7.072 45.1123 7.264 44.6163 7.648C44.1363 8.032 43.7523 8.552 43.4643 9.208C43.1923 9.864 43.0563 10.6 43.0563 11.416L42.9843 9.184C43.4163 8.08 44.0003 7.328 44.7363 6.928C45.4723 6.512 46.2243 6.304 46.9923 6.304ZM56.561 19.168C55.905 19.168 55.337 19.048 54.857 18.808C54.377 18.552 54.009 18.2 53.753 17.752C53.513 17.304 53.393 16.784 53.393 16.192C53.393 15.488 53.553 14.912 53.873 14.464C54.209 14.016 54.633 13.656 55.145 13.384C55.657 13.112 56.193 12.888 56.753 12.712C57.329 12.52 57.873 12.344 58.385 12.184C58.897 12.008 59.313 11.808 59.633 11.584C59.969 11.36 60.137 11.064 60.137 10.696V9.208C60.137 8.536 60.033 8.024 59.825 7.672C59.633 7.32 59.369 7.088 59.033 6.976C58.697 6.848 58.321 6.784 57.905 6.784C57.505 6.784 57.073 6.84 56.609 6.952C56.161 7.064 55.801 7.296 55.529 7.648C55.833 7.712 56.097 7.872 56.321 8.128C56.545 8.384 56.657 8.712 56.657 9.112C56.657 9.512 56.529 9.832 56.273 10.072C56.017 10.296 55.689 10.408 55.289 10.408C54.825 10.408 54.481 10.264 54.257 9.976C54.049 9.672 53.945 9.336 53.945 8.968C53.945 8.552 54.049 8.216 54.257 7.96C54.465 7.704 54.729 7.464 55.049 7.24C55.417 6.984 55.889 6.768 56.465 6.592C57.057 6.4 57.721 6.304 58.457 6.304C59.113 6.304 59.673 6.384 60.137 6.544C60.601 6.688 60.985 6.904 61.289 7.192C61.705 7.576 61.977 8.048 62.105 8.608C62.233 9.152 62.297 9.808 62.297 10.576V17.248C62.297 17.648 62.353 17.936 62.465 18.112C62.593 18.288 62.785 18.376 63.041 18.376C63.217 18.376 63.385 18.336 63.545 18.256C63.705 18.176 63.897 18.048 64.121 17.872L64.385 18.28C64.049 18.536 63.729 18.752 63.425 18.928C63.121 19.088 62.713 19.168 62.201 19.168C61.737 19.168 61.353 19.088 61.049 18.928C60.745 18.768 60.513 18.536 60.353 18.232C60.209 17.912 60.137 17.512 60.137 17.032C59.705 17.752 59.185 18.288 58.577 18.64C57.985 18.992 57.313 19.168 56.561 19.168ZM57.425 18.208C57.953 18.208 58.441 18.056 58.889 17.752C59.353 17.448 59.769 16.992 60.137 16.384V11.68C59.945 11.952 59.665 12.184 59.297 12.376C58.929 12.552 58.529 12.736 58.097 12.928C57.665 13.104 57.249 13.32 56.849 13.576C56.465 13.816 56.145 14.136 55.889 14.536C55.633 14.936 55.505 15.456 55.505 16.096C55.505 16.736 55.673 17.248 56.009 17.632C56.361 18.016 56.833 18.208 57.425 18.208ZM75.957 6.64V7.12C75.653 7.152 75.373 7.288 75.117 7.528C74.861 7.768 74.621 8.192 74.397 8.8L70.461 19.12C70.397 19.12 70.333 19.12 70.269 19.12C70.205 19.12 70.133 19.12 70.053 19.12L65.637 8.488C65.381 7.864 65.125 7.488 64.869 7.36C64.629 7.216 64.421 7.144 64.245 7.144V6.64C64.565 6.656 64.893 6.68 65.229 6.712C65.581 6.728 65.957 6.736 66.357 6.736C66.853 6.736 67.373 6.728 67.917 6.712C68.477 6.696 68.997 6.672 69.477 6.64V7.144C69.077 7.144 68.717 7.176 68.397 7.24C68.093 7.288 67.893 7.44 67.797 7.696C67.717 7.952 67.797 8.392 68.037 9.016L71.037 16.432L70.893 16.552L73.629 9.376C73.837 8.848 73.917 8.432 73.869 8.128C73.837 7.808 73.677 7.568 73.389 7.408C73.117 7.248 72.693 7.152 72.117 7.12V6.64C72.405 6.656 72.653 6.672 72.861 6.688C73.069 6.688 73.269 6.696 73.461 6.712C73.669 6.712 73.893 6.712 74.133 6.712C74.501 6.712 74.829 6.704 75.117 6.688C75.421 6.672 75.701 6.656 75.957 6.64ZM82.3522 6.304C83.7602 6.304 84.8562 6.736 85.6402 7.6C86.4402 8.448 86.8402 9.776 86.8402 11.584H78.3682L78.3442 11.128H84.5362C84.5682 10.344 84.5042 9.624 84.3442 8.968C84.1842 8.296 83.9282 7.76 83.5762 7.36C83.2402 6.96 82.8002 6.76 82.2562 6.76C81.5202 6.76 80.8642 7.128 80.2882 7.864C79.7282 8.6 79.3922 9.768 79.2802 11.368L79.3522 11.464C79.3202 11.704 79.2962 11.968 79.2802 12.256C79.2642 12.544 79.2562 12.832 79.2562 13.12C79.2562 14.208 79.4322 15.144 79.7842 15.928C80.1362 16.712 80.5922 17.312 81.1522 17.728C81.7282 18.128 82.3202 18.328 82.9282 18.328C83.4082 18.328 83.8642 18.256 84.2962 18.112C84.7282 17.952 85.1282 17.696 85.4962 17.344C85.8642 16.992 86.1842 16.52 86.4562 15.928L86.9362 16.12C86.7602 16.648 86.4722 17.16 86.0722 17.656C85.6722 18.152 85.1682 18.56 84.5602 18.88C83.9522 19.184 83.2482 19.336 82.4482 19.336C81.2962 19.336 80.3042 19.072 79.4722 18.544C78.6562 18.016 78.0242 17.288 77.5762 16.36C77.1442 15.416 76.9282 14.336 76.9282 13.12C76.9282 11.712 77.1522 10.504 77.6002 9.496C78.0482 8.472 78.6802 7.688 79.4962 7.144C80.3122 6.584 81.2642 6.304 82.3522 6.304ZM96.1248 6.304C96.5568 6.304 96.9328 6.392 97.2528 6.568C97.5888 6.744 97.8448 6.976 98.0208 7.264C98.2128 7.536 98.3088 7.848 98.3088 8.2C98.3088 8.6 98.1808 8.952 97.9248 9.256C97.6848 9.56 97.3568 9.712 96.9408 9.712C96.6048 9.712 96.3088 9.608 96.0528 9.4C95.7968 9.176 95.6688 8.864 95.6688 8.464C95.6688 8.16 95.7488 7.904 95.9088 7.696C96.0848 7.472 96.2768 7.296 96.4848 7.168C96.3728 7.008 96.2048 6.928 95.9808 6.928C95.4848 6.928 95.0288 7.08 94.6128 7.384C94.1968 7.672 93.8448 8.048 93.5568 8.512C93.2688 8.976 93.0448 9.472 92.8848 10C92.7248 10.512 92.6448 10.992 92.6448 11.44V16.528C92.6448 17.312 92.8688 17.84 93.3168 18.112C93.7808 18.368 94.4048 18.496 95.1888 18.496V19C94.8208 18.984 94.3008 18.968 93.6288 18.952C92.9568 18.92 92.2448 18.904 91.4928 18.904C90.9488 18.904 90.4048 18.92 89.8608 18.952C89.3328 18.968 88.9328 18.984 88.6608 19V18.496C89.3168 18.496 89.7808 18.376 90.0528 18.136C90.3408 17.896 90.4848 17.44 90.4848 16.768V9.256C90.4848 8.536 90.3568 8.008 90.1008 7.672C89.8448 7.32 89.3648 7.144 88.6608 7.144V6.64C89.1728 6.688 89.6688 6.712 90.1488 6.712C90.6128 6.712 91.0528 6.688 91.4688 6.64C91.9008 6.576 92.2928 6.488 92.6448 6.376V9.376C92.8208 8.912 93.0688 8.448 93.3888 7.984C93.7248 7.504 94.1248 7.104 94.5888 6.784C95.0528 6.464 95.5648 6.304 96.1248 6.304ZM102.756 19.168C102.1 19.168 101.532 19.048 101.052 18.808C100.572 18.552 100.204 18.2 99.9483 17.752C99.7083 17.304 99.5883 16.784 99.5883 16.192C99.5883 15.488 99.7483 14.912 100.068 14.464C100.404 14.016 100.828 13.656 101.34 13.384C101.852 13.112 102.388 12.888 102.948 12.712C103.524 12.52 104.068 12.344 104.58 12.184C105.092 12.008 105.508 11.808 105.828 11.584C106.164 11.36 106.332 11.064 106.332 10.696V9.208C106.332 8.536 106.228 8.024 106.02 7.672C105.828 7.32 105.564 7.088 105.228 6.976C104.892 6.848 104.516 6.784 104.1 6.784C103.7 6.784 103.268 6.84 102.804 6.952C102.356 7.064 101.996 7.296 101.724 7.648C102.028 7.712 102.292 7.872 102.516 8.128C102.74 8.384 102.852 8.712 102.852 9.112C102.852 9.512 102.724 9.832 102.468 10.072C102.212 10.296 101.884 10.408 101.484 10.408C101.02 10.408 100.676 10.264 100.452 9.976C100.244 9.672 100.14 9.336 100.14 8.968C100.14 8.552 100.244 8.216 100.452 7.96C100.66 7.704 100.924 7.464 101.244 7.24C101.612 6.984 102.084 6.768 102.66 6.592C103.252 6.4 103.916 6.304 104.652 6.304C105.308 6.304 105.868 6.384 106.332 6.544C106.796 6.688 107.18 6.904 107.484 7.192C107.9 7.576 108.172 8.048 108.3 8.608C108.428 9.152 108.492 9.808 108.492 10.576V17.248C108.492 17.648 108.548 17.936 108.66 18.112C108.788 18.288 108.98 18.376 109.236 18.376C109.412 18.376 109.58 18.336 109.74 18.256C109.9 18.176 110.092 18.048 110.316 17.872L110.58 18.28C110.244 18.536 109.924 18.752 109.62 18.928C109.316 19.088 108.908 19.168 108.396 19.168C107.932 19.168 107.548 19.088 107.244 18.928C106.94 18.768 106.708 18.536 106.548 18.232C106.404 17.912 106.332 17.512 106.332 17.032C105.9 17.752 105.38 18.288 104.772 18.64C104.18 18.992 103.508 19.168 102.756 19.168ZM103.62 18.208C104.148 18.208 104.636 18.056 105.084 17.752C105.548 17.448 105.964 16.992 106.332 16.384V11.68C106.14 11.952 105.86 12.184 105.492 12.376C105.124 12.552 104.724 12.736 104.292 12.928C103.86 13.104 103.444 13.32 103.044 13.576C102.66 13.816 102.34 14.136 102.084 14.536C101.828 14.936 101.7 15.456 101.7 16.096C101.7 16.736 101.868 17.248 102.204 17.632C102.556 18.016 103.028 18.208 103.62 18.208ZM10.088 22.504C10.256 22.512 10.476 22.52 10.748 22.528C11.02 22.536 11.288 22.54 11.552 22.54C11.928 22.54 12.288 22.536 12.632 22.528C12.976 22.52 13.22 22.516 13.364 22.516C14.204 22.516 14.836 22.692 15.26 23.044C15.684 23.396 15.896 23.848 15.896 24.4C15.896 24.68 15.836 24.956 15.716 25.228C15.604 25.492 15.412 25.736 15.14 25.96C14.876 26.176 14.52 26.352 14.072 26.488V26.512C14.704 26.592 15.196 26.744 15.548 26.968C15.908 27.184 16.16 27.44 16.304 27.736C16.448 28.032 16.52 28.344 16.52 28.672C16.52 29.128 16.404 29.532 16.172 29.884C15.948 30.228 15.62 30.5 15.188 30.7C14.756 30.9 14.24 31 13.64 31C13.464 31 13.2 30.996 12.848 30.988C12.496 30.972 12.072 30.964 11.576 30.964C11.296 30.964 11.02 30.968 10.748 30.976C10.476 30.976 10.256 30.984 10.088 31V30.76C10.36 30.744 10.564 30.712 10.7 30.664C10.844 30.616 10.94 30.52 10.988 30.376C11.036 30.232 11.06 30.016 11.06 29.728V23.776C11.06 23.48 11.036 23.264 10.988 23.128C10.94 22.984 10.844 22.888 10.7 22.84C10.564 22.784 10.36 22.752 10.088 22.744V22.504ZM13.064 22.744C12.696 22.744 12.456 22.812 12.344 22.948C12.232 23.084 12.176 23.36 12.176 23.776V29.728C12.176 30.008 12.2 30.22 12.248 30.364C12.296 30.508 12.384 30.604 12.512 30.652C12.64 30.7 12.828 30.724 13.076 30.724C13.86 30.724 14.428 30.544 14.78 30.184C15.14 29.816 15.32 29.296 15.32 28.624C15.32 28.008 15.152 27.532 14.816 27.196C14.488 26.86 13.944 26.692 13.184 26.692H11.948C11.948 26.692 11.948 26.66 11.948 26.596C11.948 26.524 11.948 26.488 11.948 26.488H12.98C13.452 26.488 13.816 26.4 14.072 26.224C14.328 26.04 14.504 25.8 14.6 25.504C14.696 25.2 14.744 24.876 14.744 24.532C14.744 23.94 14.612 23.496 14.348 23.2C14.092 22.896 13.664 22.744 13.064 22.744ZM19.1125 31.084C18.7845 31.084 18.5005 31.024 18.2605 30.904C18.0205 30.776 17.8365 30.6 17.7085 30.376C17.5885 30.152 17.5285 29.892 17.5285 29.596C17.5285 29.244 17.6085 28.956 17.7685 28.732C17.9365 28.508 18.1485 28.328 18.4045 28.192C18.6605 28.056 18.9285 27.944 19.2085 27.856C19.4965 27.76 19.7685 27.672 20.0245 27.592C20.2805 27.504 20.4885 27.404 20.6485 27.292C20.8165 27.18 20.9005 27.032 20.9005 26.848V26.104C20.9005 25.768 20.8485 25.512 20.7445 25.336C20.6485 25.16 20.5165 25.044 20.3485 24.988C20.1805 24.924 19.9925 24.892 19.7845 24.892C19.5845 24.892 19.3685 24.92 19.1365 24.976C18.9125 25.032 18.7325 25.148 18.5965 25.324C18.7485 25.356 18.8805 25.436 18.9925 25.564C19.1045 25.692 19.1605 25.856 19.1605 26.056C19.1605 26.256 19.0965 26.416 18.9685 26.536C18.8405 26.648 18.6765 26.704 18.4765 26.704C18.2445 26.704 18.0725 26.632 17.9605 26.488C17.8565 26.336 17.8045 26.168 17.8045 25.984C17.8045 25.776 17.8565 25.608 17.9605 25.48C18.0645 25.352 18.1965 25.232 18.3565 25.12C18.5405 24.992 18.7765 24.884 19.0645 24.796C19.3605 24.7 19.6925 24.652 20.0605 24.652C20.3885 24.652 20.6685 24.692 20.9005 24.772C21.1325 24.844 21.3245 24.952 21.4765 25.096C21.6845 25.288 21.8205 25.524 21.8845 25.804C21.9485 26.076 21.9805 26.404 21.9805 26.788V30.124C21.9805 30.324 22.0085 30.468 22.0645 30.556C22.1285 30.644 22.2245 30.688 22.3525 30.688C22.4405 30.688 22.5245 30.668 22.6045 30.628C22.6845 30.588 22.7805 30.524 22.8925 30.436L23.0245 30.64C22.8565 30.768 22.6965 30.876 22.5445 30.964C22.3925 31.044 22.1885 31.084 21.9325 31.084C21.7005 31.084 21.5085 31.044 21.3565 30.964C21.2045 30.884 21.0885 30.768 21.0085 30.616C20.9365 30.456 20.9005 30.256 20.9005 30.016C20.6845 30.376 20.4245 30.644 20.1205 30.82C19.8245 30.996 19.4885 31.084 19.1125 31.084ZM19.5445 30.604C19.8085 30.604 20.0525 30.528 20.2765 30.376C20.5085 30.224 20.7165 29.996 20.9005 29.692V27.34C20.8045 27.476 20.6645 27.592 20.4805 27.688C20.2965 27.776 20.0965 27.868 19.8805 27.964C19.6645 28.052 19.4565 28.16 19.2565 28.288C19.0645 28.408 18.9045 28.568 18.7765 28.768C18.6485 28.968 18.5845 29.228 18.5845 29.548C18.5845 29.868 18.6685 30.124 18.8365 30.316C19.0125 30.508 19.2485 30.604 19.5445 30.604ZM27.1171 24.652C27.3331 24.652 27.5211 24.696 27.6811 24.784C27.8491 24.872 27.9771 24.988 28.0651 25.132C28.1611 25.268 28.2091 25.424 28.2091 25.6C28.2091 25.8 28.1451 25.976 28.0171 26.128C27.8971 26.28 27.7331 26.356 27.5251 26.356C27.3571 26.356 27.2091 26.304 27.0811 26.2C26.9531 26.088 26.8891 25.932 26.8891 25.732C26.8891 25.58 26.9291 25.452 27.0091 25.348C27.0971 25.236 27.1931 25.148 27.2971 25.084C27.2411 25.004 27.1571 24.964 27.0451 24.964C26.7971 24.964 26.5691 25.04 26.3611 25.192C26.1531 25.336 25.9771 25.524 25.8331 25.756C25.6891 25.988 25.5771 26.236 25.4971 26.5C25.4171 26.756 25.3771 26.996 25.3771 27.22V29.764C25.3771 30.156 25.4891 30.42 25.7131 30.556C25.9451 30.684 26.2571 30.748 26.6491 30.748V31C26.4651 30.992 26.2051 30.984 25.8691 30.976C25.5331 30.96 25.1771 30.952 24.8011 30.952C24.5291 30.952 24.2571 30.96 23.9851 30.976C23.7211 30.984 23.5211 30.992 23.3851 31V30.748C23.7131 30.748 23.9451 30.688 24.0811 30.568C24.2251 30.448 24.2971 30.22 24.2971 29.884V26.128C24.2971 25.768 24.2331 25.504 24.1051 25.336C23.9771 25.16 23.7371 25.072 23.3851 25.072V24.82C23.6411 24.844 23.8891 24.856 24.1291 24.856C24.3611 24.856 24.5811 24.844 24.7891 24.82C25.0051 24.788 25.2011 24.744 25.3771 24.688V26.188C25.4651 25.956 25.5891 25.724 25.7491 25.492C25.9171 25.252 26.1171 25.052 26.3491 24.892C26.5811 24.732 26.8371 24.652 27.1171 24.652ZM34.7953 22.576C35.0993 22.576 35.3513 22.612 35.5513 22.684C35.7513 22.748 35.9153 22.832 36.0433 22.936C36.1473 23.016 36.2313 23.104 36.2953 23.2C36.3593 23.296 36.4073 23.392 36.4393 23.488C36.4713 23.584 36.4873 23.676 36.4873 23.764C36.4873 23.964 36.4153 24.12 36.2713 24.232C36.1353 24.344 35.9833 24.4 35.8153 24.4C35.6553 24.4 35.5113 24.348 35.3833 24.244C35.2553 24.14 35.1913 23.992 35.1913 23.8C35.1913 23.624 35.2513 23.476 35.3713 23.356C35.4913 23.228 35.6433 23.156 35.8273 23.14C35.7953 23.036 35.6953 22.948 35.5273 22.876C35.3673 22.796 35.1633 22.756 34.9153 22.756C34.5073 22.756 34.1713 22.88 33.9073 23.128C33.6513 23.368 33.5233 23.72 33.5233 24.184C33.5233 24.408 33.5633 24.636 33.6433 24.868C33.7313 25.1 33.8953 25.328 34.1353 25.552C34.2713 25.528 34.4113 25.512 34.5553 25.504C34.6993 25.488 34.8073 25.48 34.8793 25.48C35.0233 25.48 35.1393 25.504 35.2273 25.552C35.3153 25.6 35.3593 25.668 35.3593 25.756C35.3593 25.828 35.3273 25.884 35.2633 25.924C35.2073 25.964 35.1273 25.984 35.0233 25.984C34.8713 25.984 34.7113 25.952 34.5433 25.888C34.3753 25.816 34.2433 25.76 34.1473 25.72C33.6833 25.856 33.3073 26.08 33.0193 26.392C32.7313 26.696 32.5873 27.128 32.5873 27.688C32.5873 28.24 32.7313 28.708 33.0193 29.092C33.3073 29.476 33.6913 29.772 34.1713 29.98C34.6593 30.18 35.2033 30.28 35.8033 30.28C36.2273 30.28 36.6273 30.232 37.0033 30.136C37.3873 30.032 37.7233 29.884 38.0113 29.692C38.3073 29.5 38.5393 29.272 38.7073 29.008C38.8753 28.736 38.9593 28.428 38.9593 28.084C38.9593 27.932 38.9273 27.74 38.8633 27.508C38.7993 27.268 38.6673 27.036 38.4673 26.812C38.2673 26.58 37.9593 26.4 37.5433 26.272L37.6873 26.152C38.2713 26.328 38.6873 26.612 38.9353 27.004C39.1833 27.388 39.3073 27.82 39.3073 28.3C39.3073 28.78 39.1633 29.24 38.8753 29.68C38.5873 30.12 38.1713 30.48 37.6273 30.76C37.0833 31.032 36.4233 31.168 35.6473 31.168C35.1273 31.168 34.6313 31.1 34.1593 30.964C33.6953 30.828 33.2833 30.632 32.9233 30.376C32.5633 30.112 32.2793 29.796 32.0713 29.428C31.8633 29.06 31.7593 28.644 31.7593 28.18C31.7593 27.748 31.8433 27.38 32.0113 27.076C32.1793 26.764 32.3873 26.508 32.6353 26.308C32.8833 26.108 33.1313 25.956 33.3793 25.852C33.6273 25.74 33.8273 25.664 33.9793 25.624C33.7153 25.504 33.4913 25.364 33.3073 25.204C33.1313 25.036 32.9953 24.856 32.8993 24.664C32.8113 24.464 32.7673 24.268 32.7673 24.076C32.7673 23.884 32.8113 23.7 32.8993 23.524C32.9873 23.34 33.1153 23.176 33.2833 23.032C33.4513 22.888 33.6593 22.776 33.9073 22.696C34.1633 22.616 34.4593 22.576 34.7953 22.576ZM39.1633 22.336C39.6593 22.336 40.0753 22.48 40.4113 22.768C40.7473 23.048 40.9153 23.444 40.9153 23.956C40.9153 24.228 40.8633 24.472 40.7593 24.688C40.6633 24.896 40.5273 25.08 40.3513 25.24C40.1833 25.4 39.9913 25.532 39.7753 25.636C39.5913 25.724 39.3473 25.82 39.0433 25.924C38.7473 26.028 38.4273 26.132 38.0833 26.236C37.7473 26.34 37.4233 26.444 37.1113 26.548C36.8073 26.644 36.5593 26.728 36.3673 26.8C36.0713 26.912 35.8193 27.052 35.6113 27.22C35.4113 27.38 35.3113 27.588 35.3113 27.844C35.3113 28.052 35.3713 28.228 35.4913 28.372C35.6113 28.516 35.7553 28.624 35.9233 28.696C36.0993 28.768 36.2633 28.804 36.4153 28.804C36.4873 28.804 36.5753 28.796 36.6793 28.78C36.7913 28.756 36.8913 28.724 36.9793 28.684C37.0673 28.644 37.1193 28.596 37.1353 28.54C37.0073 28.516 36.8793 28.46 36.7513 28.372C36.6313 28.276 36.5713 28.128 36.5713 27.928C36.5713 27.736 36.6353 27.584 36.7633 27.472C36.8913 27.36 37.0473 27.304 37.2313 27.304C37.4233 27.304 37.5753 27.364 37.6873 27.484C37.8073 27.604 37.8673 27.76 37.8673 27.952C37.8673 28.176 37.7913 28.368 37.6393 28.528C37.4953 28.68 37.3113 28.796 37.0873 28.876C36.8713 28.948 36.6553 28.984 36.4393 28.984C36.2153 28.984 35.9873 28.936 35.7553 28.84C35.5233 28.744 35.3313 28.596 35.1793 28.396C35.0273 28.188 34.9513 27.916 34.9513 27.58C34.9513 27.3 35.0113 27.052 35.1313 26.836C35.2593 26.62 35.4473 26.428 35.6953 26.26C35.9433 26.092 36.2473 25.948 36.6073 25.828C36.8473 25.748 37.1393 25.66 37.4833 25.564C37.8273 25.468 38.1793 25.364 38.5393 25.252C38.9073 25.14 39.2393 25.016 39.5353 24.88C39.9353 24.696 40.2073 24.508 40.3513 24.316C40.4953 24.124 40.5673 23.928 40.5673 23.728C40.5673 23.496 40.5033 23.292 40.3753 23.116C40.2473 22.932 40.0753 22.788 39.8593 22.684C39.6513 22.572 39.4233 22.516 39.1753 22.516C39.0793 22.516 38.9993 22.524 38.9353 22.54C38.8713 22.556 38.8313 22.584 38.8153 22.624C38.9273 22.68 39.0113 22.76 39.0673 22.864C39.1233 22.968 39.1513 23.072 39.1513 23.176C39.1513 23.344 39.0833 23.484 38.9473 23.596C38.8193 23.708 38.6633 23.764 38.4793 23.764C38.3273 23.764 38.1833 23.716 38.0473 23.62C37.9113 23.516 37.8433 23.364 37.8433 23.164C37.8433 22.956 37.9113 22.792 38.0473 22.672C38.1913 22.552 38.3633 22.468 38.5633 22.42C38.7713 22.364 38.9713 22.336 39.1633 22.336ZM44.6466 22.504C44.8146 22.512 45.0346 22.52 45.3066 22.528C45.5786 22.536 45.8466 22.54 46.1106 22.54C46.4866 22.54 46.8466 22.536 47.1906 22.528C47.5346 22.52 47.7786 22.516 47.9226 22.516C48.5706 22.516 49.1066 22.608 49.5306 22.792C49.9626 22.976 50.2826 23.228 50.4906 23.548C50.7066 23.86 50.8146 24.212 50.8146 24.604C50.8146 24.844 50.7666 25.1 50.6706 25.372C50.5746 25.644 50.4066 25.9 50.1666 26.14C49.9346 26.38 49.6146 26.58 49.2066 26.74C48.7986 26.892 48.2826 26.968 47.6586 26.968H46.5066V26.728H47.5386C48.1066 26.728 48.5386 26.64 48.8346 26.464C49.1386 26.28 49.3426 26.04 49.4466 25.744C49.5586 25.44 49.6146 25.104 49.6146 24.736C49.6146 24.104 49.4626 23.616 49.1586 23.272C48.8626 22.92 48.3506 22.744 47.6226 22.744C47.2546 22.744 47.0146 22.812 46.9026 22.948C46.7906 23.084 46.7346 23.36 46.7346 23.776V29.728C46.7346 30.016 46.7586 30.232 46.8066 30.376C46.8546 30.52 46.9466 30.616 47.0826 30.664C47.2266 30.712 47.4346 30.744 47.7066 30.76V31C47.5226 30.984 47.2906 30.976 47.0106 30.976C46.7386 30.968 46.4626 30.964 46.1826 30.964C45.8706 30.964 45.5786 30.968 45.3066 30.976C45.0346 30.976 44.8146 30.984 44.6466 31V30.76C44.9186 30.744 45.1226 30.712 45.2586 30.664C45.4026 30.616 45.4986 30.52 45.5466 30.376C45.5946 30.232 45.6186 30.016 45.6186 29.728V23.776C45.6186 23.48 45.5946 23.264 45.5466 23.128C45.4986 22.984 45.4026 22.888 45.2586 22.84C45.1226 22.784 44.9186 22.752 44.6466 22.744V22.504ZM46.5546 26.764C46.9866 26.78 47.3266 26.8 47.5746 26.824C47.8226 26.84 48.0226 26.856 48.1746 26.872C48.3346 26.888 48.4866 26.908 48.6306 26.932C49.1666 27.02 49.5506 27.184 49.7826 27.424C50.0226 27.656 50.1986 28.02 50.3106 28.516L50.6106 29.74C50.6906 30.092 50.7706 30.348 50.8506 30.508C50.9386 30.66 51.0706 30.732 51.2466 30.724C51.3826 30.716 51.4946 30.672 51.5826 30.592C51.6786 30.512 51.7786 30.404 51.8826 30.268L52.0626 30.4C51.8946 30.648 51.7186 30.84 51.5346 30.976C51.3586 31.104 51.1066 31.168 50.7786 31.168C50.4826 31.168 50.2226 31.08 49.9986 30.904C49.7746 30.728 49.6066 30.384 49.4946 29.872L49.2306 28.672C49.1586 28.328 49.0746 28.032 48.9786 27.784C48.8906 27.528 48.7626 27.328 48.5946 27.184C48.4346 27.04 48.1946 26.968 47.8746 26.968H46.5786L46.5546 26.764ZM53.6398 21.82C53.8478 21.82 54.0278 21.896 54.1798 22.048C54.3318 22.2 54.4078 22.38 54.4078 22.588C54.4078 22.796 54.3318 22.976 54.1798 23.128C54.0278 23.28 53.8478 23.356 53.6398 23.356C53.4318 23.356 53.2518 23.28 53.0998 23.128C52.9478 22.976 52.8718 22.796 52.8718 22.588C52.8718 22.38 52.9478 22.2 53.0998 22.048C53.2518 21.896 53.4318 21.82 53.6398 21.82ZM54.2638 24.688V29.884C54.2638 30.22 54.3318 30.448 54.4678 30.568C54.6118 30.688 54.8478 30.748 55.1758 30.748V31C55.0398 30.992 54.8318 30.984 54.5518 30.976C54.2798 30.96 54.0038 30.952 53.7238 30.952C53.4518 30.952 53.1758 30.96 52.8958 30.976C52.6158 30.984 52.4078 30.992 52.2718 31V30.748C52.5998 30.748 52.8318 30.688 52.9678 30.568C53.1118 30.448 53.1838 30.22 53.1838 29.884V26.128C53.1838 25.768 53.1198 25.504 52.9918 25.336C52.8638 25.16 52.6238 25.072 52.2718 25.072V24.82C52.5278 24.844 52.7758 24.856 53.0158 24.856C53.2478 24.856 53.4678 24.844 53.6758 24.82C53.8918 24.788 54.0878 24.744 54.2638 24.688ZM57.9355 24.652C58.2555 24.652 58.5275 24.704 58.7515 24.808C58.9755 24.912 59.1395 25.008 59.2435 25.096C59.5075 25.312 59.6675 25.168 59.7235 24.664H59.9995C59.9835 24.888 59.9715 25.156 59.9635 25.468C59.9555 25.772 59.9515 26.184 59.9515 26.704H59.6755C59.6275 26.408 59.5435 26.12 59.4235 25.84C59.3115 25.56 59.1435 25.332 58.9195 25.156C58.6955 24.972 58.4035 24.88 58.0435 24.88C57.7635 24.88 57.5275 24.96 57.3355 25.12C57.1515 25.272 57.0595 25.5 57.0595 25.804C57.0595 26.044 57.1315 26.252 57.2755 26.428C57.4195 26.596 57.6075 26.756 57.8395 26.908C58.0715 27.052 58.3235 27.212 58.5955 27.388C58.8995 27.58 59.1755 27.776 59.4235 27.976C59.6715 28.176 59.8675 28.396 60.0115 28.636C60.1635 28.876 60.2395 29.16 60.2395 29.488C60.2395 29.856 60.1435 30.164 59.9515 30.412C59.7595 30.66 59.5075 30.848 59.1955 30.976C58.8915 31.104 58.5555 31.168 58.1875 31.168C58.0115 31.168 57.8435 31.152 57.6835 31.12C57.5315 31.096 57.3835 31.056 57.2395 31C57.1595 30.96 57.0755 30.912 56.9875 30.856C56.9075 30.8 56.8275 30.74 56.7475 30.676C56.6675 30.612 56.5955 30.616 56.5315 30.688C56.4675 30.752 56.4195 30.884 56.3875 31.084H56.1115C56.1275 30.828 56.1395 30.516 56.1475 30.148C56.1555 29.78 56.1595 29.292 56.1595 28.684H56.4355C56.4915 29.132 56.5715 29.524 56.6755 29.86C56.7795 30.196 56.9435 30.46 57.1675 30.652C57.3915 30.836 57.7035 30.928 58.1035 30.928C58.2635 30.928 58.4235 30.892 58.5835 30.82C58.7515 30.748 58.8915 30.628 59.0035 30.46C59.1155 30.292 59.1715 30.068 59.1715 29.788C59.1715 29.436 59.0435 29.148 58.7875 28.924C58.5315 28.7 58.2075 28.464 57.8155 28.216C57.5275 28.032 57.2555 27.848 56.9995 27.664C56.7515 27.48 56.5475 27.272 56.3875 27.04C56.2355 26.808 56.1595 26.528 56.1595 26.2C56.1595 25.84 56.2395 25.548 56.3995 25.324C56.5675 25.092 56.7875 24.924 57.0595 24.82C57.3315 24.708 57.6235 24.652 57.9355 24.652ZM63.0866 22.828V24.832H64.8626V25.072H63.0866V29.716C63.0866 30.092 63.1546 30.356 63.2906 30.508C63.4266 30.66 63.6146 30.736 63.8546 30.736C64.0946 30.736 64.3026 30.64 64.4786 30.448C64.6546 30.248 64.8066 29.916 64.9346 29.452L65.1746 29.512C65.0946 29.976 64.9346 30.368 64.6946 30.688C64.4626 31.008 64.1026 31.168 63.6146 31.168C63.3426 31.168 63.1186 31.132 62.9426 31.06C62.7666 30.996 62.6106 30.9 62.4746 30.772C62.2986 30.588 62.1746 30.368 62.1026 30.112C62.0386 29.856 62.0066 29.516 62.0066 29.092V25.072H60.8546V24.832H62.0066V22.996C62.2066 22.988 62.3986 22.972 62.5826 22.948C62.7666 22.924 62.9346 22.884 63.0866 22.828ZM68.3368 24.652C68.8488 24.652 69.3088 24.764 69.7168 24.988C70.1248 25.212 70.4488 25.564 70.6888 26.044C70.9368 26.524 71.0608 27.148 71.0608 27.916C71.0608 28.684 70.9368 29.308 70.6888 29.788C70.4488 30.26 70.1248 30.608 69.7168 30.832C69.3088 31.056 68.8488 31.168 68.3368 31.168C67.8328 31.168 67.3728 31.056 66.9568 30.832C66.5488 30.608 66.2208 30.26 65.9728 29.788C65.7328 29.308 65.6128 28.684 65.6128 27.916C65.6128 27.148 65.7328 26.524 65.9728 26.044C66.2208 25.564 66.5488 25.212 66.9568 24.988C67.3728 24.764 67.8328 24.652 68.3368 24.652ZM68.3368 24.892C67.8808 24.892 67.5048 25.128 67.2088 25.6C66.9208 26.072 66.7768 26.844 66.7768 27.916C66.7768 28.988 66.9208 29.76 67.2088 30.232C67.5048 30.696 67.8808 30.928 68.3368 30.928C68.7928 30.928 69.1648 30.696 69.4528 30.232C69.7488 29.76 69.8968 28.988 69.8968 27.916C69.8968 26.844 69.7488 26.072 69.4528 25.6C69.1648 25.128 68.7928 24.892 68.3368 24.892ZM75.703 24.652C75.919 24.652 76.107 24.696 76.267 24.784C76.435 24.872 76.563 24.988 76.651 25.132C76.747 25.268 76.795 25.424 76.795 25.6C76.795 25.8 76.731 25.976 76.603 26.128C76.483 26.28 76.319 26.356 76.111 26.356C75.943 26.356 75.795 26.304 75.667 26.2C75.539 26.088 75.475 25.932 75.475 25.732C75.475 25.58 75.515 25.452 75.595 25.348C75.683 25.236 75.779 25.148 75.883 25.084C75.827 25.004 75.743 24.964 75.631 24.964C75.383 24.964 75.155 25.04 74.947 25.192C74.739 25.336 74.563 25.524 74.419 25.756C74.275 25.988 74.163 26.236 74.083 26.5C74.003 26.756 73.963 26.996 73.963 27.22V29.764C73.963 30.156 74.075 30.42 74.299 30.556C74.531 30.684 74.843 30.748 75.235 30.748V31C75.051 30.992 74.791 30.984 74.455 30.976C74.119 30.96 73.763 30.952 73.387 30.952C73.115 30.952 72.843 30.96 72.571 30.976C72.307 30.984 72.107 30.992 71.971 31V30.748C72.299 30.748 72.531 30.688 72.667 30.568C72.811 30.448 72.883 30.22 72.883 29.884V26.128C72.883 25.768 72.819 25.504 72.691 25.336C72.563 25.16 72.323 25.072 71.971 25.072V24.82C72.227 24.844 72.475 24.856 72.715 24.856C72.947 24.856 73.167 24.844 73.375 24.82C73.591 24.788 73.787 24.744 73.963 24.688V26.188C74.051 25.956 74.175 25.724 74.335 25.492C74.503 25.252 74.703 25.052 74.935 24.892C75.167 24.732 75.423 24.652 75.703 24.652ZM79.0188 31.084C78.6908 31.084 78.4068 31.024 78.1668 30.904C77.9268 30.776 77.7428 30.6 77.6148 30.376C77.4948 30.152 77.4348 29.892 77.4348 29.596C77.4348 29.244 77.5148 28.956 77.6748 28.732C77.8428 28.508 78.0548 28.328 78.3108 28.192C78.5668 28.056 78.8348 27.944 79.1148 27.856C79.4028 27.76 79.6748 27.672 79.9308 27.592C80.1868 27.504 80.3948 27.404 80.5548 27.292C80.7228 27.18 80.8068 27.032 80.8068 26.848V26.104C80.8068 25.768 80.7548 25.512 80.6508 25.336C80.5548 25.16 80.4228 25.044 80.2548 24.988C80.0868 24.924 79.8988 24.892 79.6908 24.892C79.4908 24.892 79.2748 24.92 79.0428 24.976C78.8188 25.032 78.6388 25.148 78.5028 25.324C78.6548 25.356 78.7868 25.436 78.8988 25.564C79.0108 25.692 79.0668 25.856 79.0668 26.056C79.0668 26.256 79.0028 26.416 78.8748 26.536C78.7468 26.648 78.5828 26.704 78.3828 26.704C78.1508 26.704 77.9788 26.632 77.8668 26.488C77.7628 26.336 77.7108 26.168 77.7108 25.984C77.7108 25.776 77.7628 25.608 77.8668 25.48C77.9708 25.352 78.1028 25.232 78.2628 25.12C78.4468 24.992 78.6828 24.884 78.9708 24.796C79.2668 24.7 79.5988 24.652 79.9668 24.652C80.2948 24.652 80.5748 24.692 80.8068 24.772C81.0388 24.844 81.2308 24.952 81.3828 25.096C81.5908 25.288 81.7268 25.524 81.7908 25.804C81.8548 26.076 81.8868 26.404 81.8868 26.788V30.124C81.8868 30.324 81.9148 30.468 81.9708 30.556C82.0348 30.644 82.1308 30.688 82.2588 30.688C82.3468 30.688 82.4308 30.668 82.5108 30.628C82.5908 30.588 82.6868 30.524 82.7988 30.436L82.9308 30.64C82.7628 30.768 82.6028 30.876 82.4508 30.964C82.2988 31.044 82.0948 31.084 81.8388 31.084C81.6068 31.084 81.4148 31.044 81.2628 30.964C81.1108 30.884 80.9948 30.768 80.9148 30.616C80.8428 30.456 80.8068 30.256 80.8068 30.016C80.5908 30.376 80.3308 30.644 80.0268 30.82C79.7308 30.996 79.3948 31.084 79.0188 31.084ZM79.4508 30.604C79.7148 30.604 79.9588 30.528 80.1828 30.376C80.4148 30.224 80.6228 29.996 80.8068 29.692V27.34C80.7108 27.476 80.5708 27.592 80.3868 27.688C80.2028 27.776 80.0028 27.868 79.7868 27.964C79.5708 28.052 79.3628 28.16 79.1628 28.288C78.9708 28.408 78.8108 28.568 78.6828 28.768C78.5548 28.968 78.4908 29.228 78.4908 29.548C78.4908 29.868 78.5748 30.124 78.7428 30.316C78.9188 30.508 79.1548 30.604 79.4508 30.604ZM87.3234 24.652C87.6274 24.652 87.8794 24.692 88.0794 24.772C88.2874 24.852 88.4594 24.964 88.5954 25.108C88.7474 25.268 88.8554 25.468 88.9194 25.708C88.9834 25.948 89.0154 26.272 89.0154 26.68V29.884C89.0154 30.22 89.0834 30.448 89.2194 30.568C89.3634 30.688 89.5994 30.748 89.9274 30.748V31C89.7914 30.992 89.5834 30.984 89.3034 30.976C89.0234 30.96 88.7514 30.952 88.4874 30.952C88.2234 30.952 87.9634 30.96 87.7074 30.976C87.4594 30.984 87.2714 30.992 87.1434 31V30.748C87.4314 30.748 87.6354 30.688 87.7554 30.568C87.8754 30.448 87.9354 30.22 87.9354 29.884V26.416C87.9354 26.168 87.9154 25.94 87.8754 25.732C87.8354 25.524 87.7434 25.356 87.5994 25.228C87.4634 25.1 87.2514 25.036 86.9634 25.036C86.6274 25.036 86.3314 25.132 86.0754 25.324C85.8274 25.516 85.6314 25.78 85.4874 26.116C85.3514 26.444 85.2834 26.812 85.2834 27.22V29.884C85.2834 30.22 85.3434 30.448 85.4634 30.568C85.5834 30.688 85.7874 30.748 86.0754 30.748V31C85.9474 30.992 85.7554 30.984 85.4994 30.976C85.2514 30.96 84.9954 30.952 84.7314 30.952C84.4674 30.952 84.1954 30.96 83.9154 30.976C83.6354 30.984 83.4274 30.992 83.2914 31V30.748C83.6194 30.748 83.8514 30.688 83.9874 30.568C84.1314 30.448 84.2034 30.22 84.2034 29.884V26.128C84.2034 25.768 84.1394 25.504 84.0114 25.336C83.8834 25.16 83.6434 25.072 83.2914 25.072V24.82C83.5474 24.844 83.7954 24.856 84.0354 24.856C84.2674 24.856 84.4874 24.844 84.6954 24.82C84.9114 24.788 85.1074 24.744 85.2834 24.688V26.104C85.4914 25.56 85.7794 25.184 86.1474 24.976C86.5234 24.76 86.9154 24.652 87.3234 24.652ZM92.3835 22.828V24.832H94.1595V25.072H92.3835V29.716C92.3835 30.092 92.4515 30.356 92.5875 30.508C92.7235 30.66 92.9115 30.736 93.1515 30.736C93.3915 30.736 93.5995 30.64 93.7755 30.448C93.9515 30.248 94.1035 29.916 94.2315 29.452L94.4715 29.512C94.3915 29.976 94.2315 30.368 93.9915 30.688C93.7595 31.008 93.3995 31.168 92.9115 31.168C92.6395 31.168 92.4155 31.132 92.2395 31.06C92.0635 30.996 91.9075 30.9 91.7715 30.772C91.5955 30.588 91.4715 30.368 91.3995 30.112C91.3355 29.856 91.3035 29.516 91.3035 29.092V25.072H90.1515V24.832H91.3035V22.996C91.5035 22.988 91.6955 22.972 91.8795 22.948C92.0635 22.924 92.2315 22.884 92.3835 22.828ZM97.6097 24.652C98.3137 24.652 98.8617 24.868 99.2537 25.3C99.6537 25.724 99.8537 26.388 99.8537 27.292H95.6177L95.6057 27.064H98.7017C98.7177 26.672 98.6857 26.312 98.6057 25.984C98.5257 25.648 98.3977 25.38 98.2217 25.18C98.0537 24.98 97.8337 24.88 97.5617 24.88C97.1937 24.88 96.8657 25.064 96.5777 25.432C96.2977 25.8 96.1297 26.384 96.0737 27.184L96.1097 27.232C96.0937 27.352 96.0817 27.484 96.0737 27.628C96.0657 27.772 96.0617 27.916 96.0617 28.06C96.0617 28.604 96.1497 29.072 96.3257 29.464C96.5017 29.856 96.7297 30.156 97.0097 30.364C97.2977 30.564 97.5937 30.664 97.8977 30.664C98.1377 30.664 98.3657 30.628 98.5817 30.556C98.7977 30.476 98.9977 30.348 99.1817 30.172C99.3657 29.996 99.5257 29.76 99.6617 29.464L99.9017 29.56C99.8137 29.824 99.6697 30.08 99.4697 30.328C99.2697 30.576 99.0177 30.78 98.7137 30.94C98.4097 31.092 98.0577 31.168 97.6577 31.168C97.0817 31.168 96.5857 31.036 96.1697 30.772C95.7617 30.508 95.4457 30.144 95.2217 29.68C95.0057 29.208 94.8977 28.668 94.8977 28.06C94.8977 27.356 95.0097 26.752 95.2337 26.248C95.4577 25.736 95.7737 25.344 96.1817 25.072C96.5897 24.792 97.0657 24.652 97.6097 24.652Z" fill="#F9FAF8"/>
</svg>
